<?xml version="1.0" encoding="UTF-8"?>
<svg fill="none" viewBox="0 0 444 99" xmlns="http://www.w3.org/2000/svg">
<path d="m158.62 70.65h-8.618v-43.958h27.776v8.122h-19.22v10.85h17.112v7.874h-17.05v17.112z" fill="#fff"/>
<path d="m190.38 61.784c1.53 1.5294 3.369 2.294 5.518 2.294 2.15 0 3.968-0.7646 5.456-2.294 1.53-1.5293 2.294-3.658 2.294-6.386s-0.764-4.8566-2.294-6.386c-1.488-1.5293-3.306-2.294-5.456-2.294-2.149 0-3.988 0.7647-5.518 2.294-1.488 1.5294-2.232 3.658-2.232 6.386s0.744 4.8567 2.232 6.386zm-5.952-17.98c3.059-3.0586 6.882-4.588 11.47-4.588s8.391 1.5294 11.408 4.588c3.059 3.0587 4.588 6.9234 4.588 11.594 0 4.6707-1.529 8.5354-4.588 11.594-3.017 3.0587-6.82 4.588-11.408 4.588s-8.411-1.5293-11.47-4.588c-3.017-3.0586-4.526-6.9233-4.526-11.594 0-4.6706 1.509-8.5353 4.526-11.594z" fill="#fff"/>
<path d="m213.6 70.65 10.85-15.314-10.85-15.19h9.796c0.372 0.5374 1.385 2.046 3.038 4.526 1.695 2.4387 2.707 3.9474 3.038 4.526l6.014-9.052h9.362l-10.664 14.942 11.036 15.562h-9.672l-6.386-9.362c-0.207 0.3307-0.806 1.2194-1.798 2.666-0.951 1.4467-1.86 2.8107-2.728 4.092-0.827 1.24-1.405 2.108-1.736 2.604h-9.3z" fill="#fff"/>
<path d="m258.5 70.65h-8.246v-30.504h7.874v3.72c0.785-1.4053 2.025-2.5213 3.72-3.348 1.695-0.8266 3.431-1.24 5.208-1.24 4.423 0 7.44 1.6947 9.052 5.084 2.191-3.3893 5.415-5.084 9.672-5.084 3.1 0 5.704 0.9714 7.812 2.914 2.149 1.9427 3.224 4.836 3.224 8.68v19.778h-7.998v-18.104c0-1.736-0.455-3.1206-1.364-4.154-0.868-1.0746-2.211-1.612-4.03-1.612-1.695 0-3.059 0.5787-4.092 1.736-1.033 1.1574-1.55 2.5833-1.55 4.278v17.856h-8.184v-18.104c0-1.736-0.455-3.1206-1.364-4.154-0.909-1.0746-2.253-1.612-4.03-1.612-1.736 0-3.121 0.5787-4.154 1.736-1.033 1.116-1.55 2.542-1.55 4.278v17.856z" fill="#fff"/>
<path d="m303.31 62.342c0-2.604 0.847-4.6913 2.542-6.262 1.695-1.5706 3.885-2.5626 6.572-2.976l7.502-1.116c1.529-0.2066 2.294-0.93 2.294-2.17 0-1.1573-0.455-2.108-1.364-2.852-0.868-0.744-2.129-1.116-3.782-1.116-1.736 0-3.121 0.4754-4.154 1.426-0.992 0.9507-1.55 2.1287-1.674 3.534l-7.316-1.55c0.289-2.6453 1.591-4.9806 3.906-7.006 2.315-2.0253 5.373-3.038 9.176-3.038 4.547 0 7.895 1.0954 10.044 3.286 2.149 2.1494 3.224 4.9187 3.224 8.308v15.004c0 1.8187 0.124 3.4307 0.372 4.836h-7.564c-0.207-0.9093-0.31-2.1286-0.31-3.658-1.943 3.0174-4.939 4.526-8.99 4.526-3.141 0-5.683-0.9093-7.626-2.728-1.901-1.8186-2.852-3.968-2.852-6.448zm12.214 3.038c1.943 0 3.534-0.5373 4.774-1.612 1.281-1.116 1.922-2.9346 1.922-5.456v-1.364l-6.882 1.054c-2.521 0.372-3.782 1.6534-3.782 3.844 0 0.992 0.351 1.8394 1.054 2.542 0.703 0.6614 1.674 0.992 2.914 0.992z" fill="#fff"/>
<path d="m335.98 62.156 7.068-1.55c0.083 1.3227 0.599 2.4387 1.55 3.348 0.992 0.868 2.335 1.302 4.03 1.302 1.281 0 2.273-0.2893 2.976-0.868 0.703-0.5786 1.054-1.302 1.054-2.17 0-1.5293-1.095-2.5213-3.286-2.976l-4.03-0.93c-2.852-0.62-5.001-1.736-6.448-3.348-1.405-1.612-2.108-3.534-2.108-5.766 0-2.7693 1.075-5.1253 3.224-7.068 2.191-1.9426 4.919-2.914 8.184-2.914 2.067 0 3.885 0.31 5.456 0.93 1.571 0.5787 2.79 1.3434 3.658 2.294 0.868 0.9094 1.529 1.8394 1.984 2.79 0.455 0.9507 0.744 1.8807 0.868 2.79l-6.882 1.55c-0.165-1.0746-0.661-2.0253-1.488-2.852-0.785-0.8266-1.963-1.24-3.534-1.24-1.075 0-2.005 0.2894-2.79 0.868-0.744 0.5787-1.116 1.302-1.116 2.17 0 1.488 0.93 2.3974 2.79 2.728l4.34 0.93c2.935 0.62 5.167 1.7567 6.696 3.41 1.571 1.6534 2.356 3.6374 2.356 5.952 0 2.728-1.033 5.084-3.1 7.068s-4.981 2.976-8.742 2.976c-2.149 0-4.071-0.31-5.766-0.93-1.695-0.6613-3.017-1.488-3.968-2.48-0.909-1.0333-1.612-2.046-2.108-3.038-0.455-1.0333-0.744-2.0253-0.868-2.976z" fill="#fff"/>
<path d="m377.34 31.032v9.114h6.138v7.316h-6.138v12.772c0 1.2814 0.289 2.1907 0.868 2.728 0.579 0.5374 1.488 0.806 2.728 0.806 1.116 0 1.963-0.0826 2.542-0.248v6.82c-1.199 0.496-2.749 0.744-4.65 0.744-2.976 0-5.332-0.8266-7.068-2.48-1.736-1.6946-2.604-4.0093-2.604-6.944v-14.198h-5.518v-7.316h1.55c1.529 0 2.687-0.434 3.472-1.302 0.827-0.9093 1.24-2.0873 1.24-3.534v-4.278h7.44z" fill="#fff"/>
<path d="m396.19 51.926h13.64c-0.083-1.6946-0.703-3.1206-1.86-4.278-1.116-1.1573-2.769-1.736-4.96-1.736-1.984 0-3.596 0.62-4.836 1.86s-1.901 2.6247-1.984 4.154zm14.446 7.936 6.882 2.046c-0.827 2.8107-2.459 5.1254-4.898 6.944-2.397 1.8187-5.394 2.728-8.99 2.728-4.381 0-8.101-1.4673-11.16-4.402-3.059-2.976-4.588-6.944-4.588-11.904 0-4.712 1.488-8.556 4.464-11.532 2.976-3.0173 6.489-4.526 10.54-4.526 4.712 0 8.391 1.4054 11.036 4.216 2.687 2.8107 4.03 6.6754 4.03 11.594 0 0.3307-0.021 0.7027-0.062 1.116v0.992l-0.062 0.434h-21.824c0.083 1.984 0.868 3.6374 2.356 4.96 1.488 1.3227 3.265 1.984 5.332 1.984 3.513 0 5.828-1.55 6.944-4.65z" fill="#fff"/>
<path d="m443.04 40.022v8.308c-0.826-0.1653-1.653-0.248-2.48-0.248-2.356 0-4.257 0.682-5.704 2.046-1.446 1.3227-2.17 3.5134-2.17 6.572v13.95h-8.246v-30.504h7.998v4.526c1.488-3.1826 4.382-4.774 8.68-4.774 0.455 0 1.096 0.0414 1.922 0.124z" fill="#fff"/>
<g clip-path="url(#c)">
<path d="m109.92 1.6337c-7.808 20.929-12.095 43.007-12.686 65.338-0.0093 0.2187-0.078 0.4307-0.1988 0.6132s-0.2891 0.3285-0.4868 0.4225c-15.061 7.5792-28.766 17.595-40.56 29.643-0.2637 0.262-0.6203 0.409-0.9919 0.409-0.3717 0-0.7283-0.147-0.992-0.409-11.654-11.898-25.171-21.815-40.018-29.362-0.154-0.0701-0.2911-0.1726-0.4019-0.3005s-0.1927-0.2782-0.24-0.4406c-0.0474-0.1625-0.0592-0.3333-0.0345-0.5007 0.0246-0.1674 0.0851-0.3275 0.1773-0.4694 21.213-31.857 54.893-55.942 94.812-66.527 0.222-0.073385 0.46-0.0843 0.688-0.031552 0.228 0.052748 0.437 0.16713 0.605 0.33065 0.167 0.16352 0.286 0.36987 0.344 0.59652 0.058 0.22665 0.052 0.46488-0.016 0.68863z" fill="url(#b)"/>
<path d="m96.01 68.288c-11.272 5.7401-21.794 12.846-31.331 21.156-0.2071 0.1804-0.4083 0.3608-0.6147 0.5413-0.3341 0.294-0.6622 0.588-0.9896 0.882-0.127 0.1069-0.2466 0.2204-0.3742 0.334l-0.167 0.147c-2.2518 2.038-4.432 4.1383-6.5408 6.301-0.1303 0.1304-0.2851 0.2338-0.4554 0.3044s-0.3528 0.1069-0.5372 0.1069-0.3669-0.0363-0.5372-0.1069-0.3251-0.174-0.4554-0.3044c-2.1114-2.1649-4.2917-4.2675-6.5408-6.3076l-0.1603-0.1404-0.3816-0.3407c-0.3267-0.294-0.6541-0.588-0.9882-0.8753-0.2004-0.1871-0.4009-0.3609-0.6087-0.5413-9.6956-8.443-20.407-15.644-31.885-21.435-0.1984-0.0945-0.367-0.2417-0.4873-0.4255-0.1203-0.1839-0.1877-0.3973-0.1949-0.6168-0.388-14.706-2.3821-29.326-5.9468-43.599-0.32073-1.2963-0.65481-2.5792-1.0023-3.8621-1.1827-4.3565-2.5054-8.664-3.9683-12.923-0.48777-1.4232-0.99558-2.8331-1.5168-4.2496-0.080182-0.23387-0.16704-0.46773-0.25458-0.69491-0.068538-0.22414-0.074026-0.46283-0.01586-0.68989 0.058165-0.22706 0.17774-0.43371 0.3456-0.59729 0.16786-0.16358 0.37754-0.27778 0.60602-0.33006 0.22848-0.052284 0.46695-0.040636 0.68925 0.033667 39.917 10.577 73.592 34.665 94.807 66.524 0.0925 0.1414 0.1534 0.3011 0.1785 0.4682s0.0138 0.3377-0.0332 0.5c-0.0469 0.1623-0.1284 0.3126-0.2388 0.4405-0.1105 0.1279-0.2472 0.2304-0.401 0.3005z" fill="url(#a)"/>
<g opacity=".2" style="mix-blend-mode:hard-light">
<path d="m63.995 89.915-0.1263 0.4891c-0.4438 0.1749-0.8426 0.4471-1.1673 0.7964l-0.1671 0.147c-2.2517 2.038-4.432 4.1383-6.5408 6.301-0.1303 0.1304-0.285 0.2338-0.4553 0.3044s-0.3529 0.1069-0.5372 0.1069c-0.1844 0-0.367-0.0363-0.5373-0.1069s-0.325-0.174-0.4553-0.3044c-2.1115-2.1649-4.2917-4.2675-6.5408-6.3076l-0.1604-0.1404-0.3815-0.3407c-0.3267-0.294-0.6541-0.588-0.9882-0.8753 0.4009-0.3983 0.7942-0.8059 1.18-1.2228 0.9933-1.0896 2.2018-1.9614 3.5491-2.5605 1.3473-0.599 2.8041-0.9122 4.2785-0.9198 1.4745-0.0076 2.9345 0.2906 4.2879 0.8757 1.3533 0.5851 2.5707 1.4444 3.5753 2.5237 0.3875 0.4201 0.7831 0.8315 1.1867 1.2342z" fill="#1E0E08"/>
</g>
</g>
<defs>
<linearGradient id="b" x1="105.15" x2="13.149" y1="49.03" y2="49.03" gradientUnits="userSpaceOnUse">
<stop stop-color="#C55E30" offset="0"/>
<stop stop-color="#C1592B" offset="1"/>
</linearGradient>
<linearGradient id="a" x1="4.8497" x2="96.852" y1="49.032" y2="49.032" gradientUnits="userSpaceOnUse">
<stop stop-color="#F4956C" offset="0"/>
<stop stop-color="#C1592B" offset="1"/>
</linearGradient>
<clipPath id="c">
<path d="M0 0H110V98.0597H0V0Z" fill="#fff"/>
</clipPath>
</defs>
</svg>
